<svg width="20" height="20" viewBox="0 0 20 20" fill="none" xmlns="http://www.w3.org/2000/svg">
    <mask id="mask0" maskUnits="userSpaceOnUse" x="2" y="1" width="16" height="18">
        <path fill-rule="evenodd" clip-rule="evenodd" d="M15 3.33333H15.8333C16.75 3.33333 17.5 4.08333 17.5 5V16.6667C17.5 17.5833 16.75 18.3333 15.8333 18.3333H4.16667C3.24167 18.3333 2.5 17.5833 2.5 16.6667L2.50833 5C2.50833 4.08333 3.24167 3.33333 4.16667 3.33333H5V1.66666H6.66667V3.33333H13.3333V1.66666H15V3.33333ZM4.16667 16.6667H15.8333V8.33333H4.16667V16.6667ZM15.8333 6.66666H4.16667V5H15.8333V6.66666ZM10 10.8333H14.1667V15H10V10.8333Z" fill="white"/>
    </mask>
    <g mask="url(#mask0)">
        <rect width="20" height="20" fill="white"/>
    </g>
</svg>

