<svg width="20" height="20" viewBox="0 0 20 20" fill="none" xmlns="http://www.w3.org/2000/svg">
    <mask id="mask0" mask-type="alpha" maskUnits="userSpaceOnUse" x="1" y="4" width="18" height="12">
        <path fill-rule="evenodd" clip-rule="evenodd" d="M7.50008 10C9.10841 10 10.4167 8.69166 10.4167 7.08333C10.4167 5.475 9.10841 4.16666 7.50008 4.16666C5.89175 4.16666 4.58341 5.475 4.58341 7.08333C4.58341 8.69166 5.89175 10 7.50008 10ZM1.66675 14.375C1.66675 12.4333 5.55008 11.4583 7.50008 11.4583C9.45008 11.4583 13.3334 12.4333 13.3334 14.375V15.8333H1.66675V14.375ZM7.50009 13.125C6.00842 13.125 4.31675 13.6833 3.61675 14.1667H11.3834C10.6834 13.6833 8.99175 13.125 7.50009 13.125ZM8.75008 7.08333C8.75008 6.39166 8.19175 5.83333 7.50008 5.83333C6.80841 5.83333 6.25008 6.39166 6.25008 7.08333C6.25008 7.775 6.80841 8.33333 7.50008 8.33333C8.19175 8.33333 8.75008 7.775 8.75008 7.08333ZM13.3667 11.5083C14.3334 12.2083 15.0001 13.1417 15.0001 14.375V15.8333H18.3334V14.375C18.3334 12.6917 15.4167 11.7333 13.3667 11.5083ZM15.4167 7.08333C15.4167 8.69166 14.1084 10 12.5001 10C12.0501 10 11.6334 9.89166 11.2501 9.70833C11.7751 8.96666 12.0834 8.05833 12.0834 7.08333C12.0834 6.10833 11.7751 5.2 11.2501 4.45833C11.6334 4.275 12.0501 4.16666 12.5001 4.16666C14.1084 4.16666 15.4167 5.475 15.4167 7.08333Z" fill="white"/>
    </mask>
    <g mask="url(#mask0)">
        <rect width="20" height="20" fill="white"/>
    </g>
</svg>
