<svg width="20" height="20" viewBox="0 0 20 20" fill="none" xmlns="http://www.w3.org/2000/svg">
    <mask id="mask0" mask-type="alpha" maskUnits="userSpaceOnUse" x="3" y="1" width="14" height="18">
        <path fill-rule="evenodd" clip-rule="evenodd" d="M11.2499 1.1125C11.2499 1.1125 11.8666 3.32083 11.8666 5.1125C11.8666 6.82916 10.7416 8.22083 9.02492 8.22083C7.29992 8.22083 5.99992 6.82916 5.99992 5.1125L6.02492 4.8125C4.34159 6.8125 3.33325 9.40416 3.33325 12.2208C3.33325 15.9042 6.31658 18.8875 9.99992 18.8875C13.6833 18.8875 16.6666 15.9042 16.6666 12.2208C16.6666 7.72916 14.5083 3.72083 11.2499 1.1125ZM9.64158 11.5208C8.50825 11.7542 7.83325 12.4875 7.83325 13.5292C7.83325 14.6458 8.75825 15.5458 9.90825 15.5458C11.6166 15.5458 12.9999 14.1625 12.9999 12.4542C12.9999 11.5625 12.8749 10.6875 12.6166 9.85416C11.9582 10.7458 10.7832 11.2875 9.64158 11.5208ZM4.99992 12.2208C4.99992 14.9792 7.24159 17.2208 9.99992 17.2208C12.7583 17.2208 14.9999 14.9792 14.9999 12.2208C14.9999 10.0875 14.4499 8.02917 13.4249 6.19583C12.9833 8.3625 11.2416 9.8875 9.02492 9.8875C7.72492 9.8875 6.55825 9.37083 5.71659 8.52917C5.24992 9.6875 4.99992 10.9458 4.99992 12.2208Z" fill="white"/>
    </mask>
    <g mask="url(#mask0)">
        <rect width="20" height="20" fill="white"/>
    </g>
</svg>
